<svg width="21" height="15" viewBox="0 0 21 15" fill="none" xmlns="http://www.w3.org/2000/svg">
<path d="M1.96875 0C0.881836 0 0 0.797852 0 1.78125C0 2.3416 0.291211 2.86855 0.7875 3.20625L9.7125 9.2625C10.1801 9.57793 10.8199 9.57793 11.2875 9.2625L20.2125 3.20625C20.7088 2.86855 21 2.3416 21 1.78125C21 0.797852 20.1182 0 19.0312 0H1.96875ZM0 4.15625V11.875C0 13.185 1.17715 14.25 2.625 14.25H18.375C19.8229 14.25 21 13.185 21 11.875V4.15625L12.075 10.2125C11.1398 10.8471 9.86016 10.8471 8.925 10.2125L0 4.15625Z" fill="black"/>
</svg>
