<svg class="svg-icon" style="width: 1em;height: 1em;vertical-align: middle;fill: currentColor;overflow: hidden;" viewBox="0 0 1024 1024" version="1.1" xmlns="http://www.w3.org/2000/svg"><path d="M751.4 320.21H706v-56.84A135.4 135.4 0 0 0 570.62 128H454.41A135.4 135.4 0 0 0 319 263.37v56.84h-47.73a80 80 0 0 0-80 80v415.41a80 80 0 0 0 80 80H751.4a80 80 0 0 0 80-80V400.21a80 80 0 0 0-80-80z m-367.65-51.09a77.36 77.36 0 0 1 77.36-77.35h101.63a77.06 77.06 0 0 1 77.06 77.06V320h-256z m317.07 387.77c-17.47 87.84-95 154-188 154-105.84 0-191.64-85.8-191.64-191.63 0-105.84 85.8-191.64 191.64-191.64a191.5 191.5 0 0 1 48.85 6.3l5.07-20.76a7.23 7.23 0 0 1 11.86-3.65L677.94 499l-129.1 32.21a7.22 7.22 0 0 1-8.76-8.73l6.9-28.21a128.27 128.27 0 0 0-33.24-4.37 128 128 0 0 0-128 128 128 128 0 0 0 128 128A128 128 0 0 0 639 644.56a31.66 31.66 0 0 1 30.9-25.26 31.51 31.51 0 0 1 30.92 37.59z"  /></svg>